<svg id="Layer_1" data-name="Layer 1" xmlns="http://www.w3.org/2000/svg" viewBox="0 0 50 50"><defs><style>.cls-1{fill:#fff;}</style></defs><title>linkedin-icon-white</title><path class="cls-1" d="M24.81.83a24,24,0,1,1-24,24A24,24,0,0,1,24.81.83ZM38.27,36.12c0-.18,0-.3,0-.42,0-3,0-6,0-9A11.83,11.83,0,0,0,38,24.32a5.57,5.57,0,0,0-4.38-4.72c-2.54-.56-4.75,0-6.32,2.24a1.42,1.42,0,0,1-.19.16V19.84H21.75V36.11h5.4c0-.22,0-.41,0-.6,0-2.9,0-5.79,0-8.69a3.06,3.06,0,0,1,1.26-2.58,2.64,2.64,0,0,1,4.22,1.38,7.67,7.67,0,0,1,.24,2c0,2.63,0,5.27,0,7.9,0,.2,0,.4,0,.62Zm-25-16.3V36.12h5.36V19.83ZM16,17.55a2.89,2.89,0,0,0,3-2.06,2.78,2.78,0,0,0-1.88-3.43,3.14,3.14,0,0,0-4,1.69A2.82,2.82,0,0,0,16,17.55Z"/></svg>