<svg id="Layer_1" data-name="Layer 1" xmlns="http://www.w3.org/2000/svg" viewBox="0 0 50 50"><defs><style>.cls-1{fill:#fff;}</style></defs><title>pinterest-icon-white</title><path class="cls-1" d="M15.4,46.79c0-.28,0-.47,0-.66a28.65,28.65,0,0,1,.31-4.1c.94-4.35,2-8.66,3-13a2.09,2.09,0,0,0,0-1.11,9.53,9.53,0,0,1-.53-4.5c.26-2.08,1.05-3.9,3.08-4.85a3.14,3.14,0,0,1,4.64,2.51,6.49,6.49,0,0,1-.11,2.37c-.56,2.25-1.27,4.46-1.85,6.7A3.73,3.73,0,0,0,28.08,35a5.44,5.44,0,0,0,3-1.21,9.8,9.8,0,0,0,2.82-4A19.46,19.46,0,0,0,35.26,23a9.85,9.85,0,0,0-1.1-5.4c-1.72-3.06-4.52-4.31-7.88-4.5-6.65-.37-11.49,3.29-12.61,9.54-.37,2.06-.36,4.18,1,5.92a3,3,0,0,1,.51,3.2,3.94,3.94,0,0,0-.11.42c-.28,1.05-.7,1.25-1.69.77a7.29,7.29,0,0,1-3.84-4.61,13.53,13.53,0,0,1,4-14.76c5.19-4.83,11.46-5.8,18.11-3.7a13.34,13.34,0,0,1,9.07,9.25A16.58,16.58,0,0,1,40.57,28c-.92,3.89-2.75,7.23-6.21,9.45s-9,2.82-12-1.09c-1.14,3.94-1.62,8.08-4.08,11.54a24.23,24.23,0,1,0-2.86-1.08Z"/></svg>